<?xml version="1.0" encoding="utf-8"?>
<!-- Generator: Adobe Illustrator 16.0.0, SVG Export Plug-In . SVG Version: 6.00 Build 0)  -->
<!DOCTYPE svg PUBLIC "-//W3C//DTD SVG 1.1//EN" "http://www.w3.org/Graphics/SVG/1.1/DTD/svg11.dtd">
<svg version="1.1" id="Layer_1" xmlns="http://www.w3.org/2000/svg" xmlns:xlink="http://www.w3.org/1999/xlink" x="0px" y="0px"
	 width="145px" height="145px" viewBox="0 0 145 145" enable-background="new 0 0 145 145" xml:space="preserve">
<g>
	<rect x="113.424" y="20.833" fill="#262626" width="13" height="9"/>
	<path fill="#262626" d="M123.646,0.833H22.398c-11.481,0-20.974,9.039-20.974,20.521v101.248c0,11.481,9.492,21.23,20.974,21.23
		h101.248c11.482,0,20.778-9.749,20.778-21.23V21.354C144.424,9.872,135.128,0.833,123.646,0.833z M136.424,122.603
		c0,6.906-5.871,13.23-12.778,13.23H22.398c-6.906,0-12.974-6.324-12.974-13.23V21.354c0-6.907,6.067-12.521,12.974-12.521h100.727
		h0.521c6.907,0,12.778,5.614,12.778,12.521V122.603z"/>
	<path fill="#262626" d="M73.1,35.661c-19.832,0-35.968,16.137-35.968,35.969c0,19.834,16.136,35.97,35.968,35.97
		c19.834,0,35.97-16.136,35.97-35.97C109.07,51.798,92.934,35.661,73.1,35.661z M73.1,103.425c-17.53,0-31.792-14.263-31.792-31.795
		c0-17.531,14.262-31.793,31.792-31.793c17.532,0,31.795,14.262,31.795,31.793C104.895,89.162,90.632,103.425,73.1,103.425z"/>
	<path fill="#262626" d="M84.733,60.999l3.477-10.352l0.854-2.54c-4.551-3.094-10.045-4.903-15.963-4.903
		c-15.697,0-28.425,12.728-28.425,28.426c0,15.699,12.728,28.427,28.425,28.427c15.701,0,28.427-12.728,28.427-28.427
		c0-4.879-1.23-9.469-3.396-13.481l-2.75,0.594L84.733,60.999z"/>
</g>
</svg>
