<?xml version="1.0" encoding="utf-8"?>
<!-- Generator: Adobe Illustrator 16.0.0, SVG Export Plug-In . SVG Version: 6.00 Build 0)  -->
<!DOCTYPE svg PUBLIC "-//W3C//DTD SVG 1.1//EN" "http://www.w3.org/Graphics/SVG/1.1/DTD/svg11.dtd">
<svg version="1.1" id="Layer_1" xmlns="http://www.w3.org/2000/svg" xmlns:xlink="http://www.w3.org/1999/xlink" x="0px" y="0px"
	 width="163.821px" height="101px" viewBox="0 0 163.821 101" enable-background="new 0 0 163.821 101" xml:space="preserve">
<g>
	<path fill="#262626" d="M52.292,57.263c0,19.002,15.458,34.461,34.459,34.461c19.002,0,34.461-15.459,34.461-34.461
		c0-19.001-15.459-34.46-34.461-34.46C67.75,22.803,52.292,38.262,52.292,57.263z M86.751,26.803
		c16.796,0,30.461,13.664,30.461,30.46s-13.665,30.461-30.461,30.461c-16.795,0-30.459-13.665-30.459-30.461
		S69.956,26.803,86.751,26.803z"/>
	<circle fill="#262626" cx="86.751" cy="57.263" r="27.233"/>
	<path fill="#262626" d="M157.749,1H70.825c-3.311,0-6.004,2.663-6.004,5.937V7h-3V3h-26v4h-5V1h-6V0h-7v1h-6v6H5.879
		c-3.284,0-6.058,2.78-6.058,6.07v82.264c0,3.23,2.604,5.666,6.058,5.666h151.87c3.462,0,6.072-2.436,6.072-5.666V6.937
		C163.821,3.663,161.097,1,157.749,1z M155.821,93h-148V15h59.004c3.306,0,5.996-2.66,5.996-5.93V9h83V93z"/>
	<rect x="43.821" y="23" fill="#262626" width="13" height="9"/>
	<rect x="101.821" y="12" fill="#262626" width="17" height="11"/>
	<path fill="#262626" d="M126.821,36h22c2.206,0,4-1.794,4-4V15c0-2.206-1.794-4-4-4h-22c-2.206,0-4,1.794-4,4v17
		C122.821,34.206,124.616,36,126.821,36z M126.821,15h22l0.002,17h-22.002V15z"/>
</g>
</svg>
