<?xml version="1.0" encoding="utf-8"?>
<!-- Generator: Adobe Illustrator 16.0.0, SVG Export Plug-In . SVG Version: 6.00 Build 0)  -->
<!DOCTYPE svg PUBLIC "-//W3C//DTD SVG 1.1//EN" "http://www.w3.org/Graphics/SVG/1.1/DTD/svg11.dtd">
<svg version="1.1" id="Layer_1" xmlns="http://www.w3.org/2000/svg" xmlns:xlink="http://www.w3.org/1999/xlink" x="0px" y="0px"
	 width="618.357px" height="143.533px" viewBox="0 0 618.357 143.533" enable-background="new 0 0 618.357 143.533"
	 xml:space="preserve">
<g>
	<path fill="#262626" d="M92.292,0.287V107.65H73.059L37.032,26.84v80.81h-9.617V8.756c-5.263,1.818-9.379,4.714-12.344,8.684
		c-2.967,3.971-4.45,9.164-4.45,15.573c0,2.967,0.238,5.479,0.718,7.535c0.478,2.059,1.052,3.782,1.723,5.168
		c0.668,1.388,1.411,2.511,2.224,3.373c0.812,0.862,1.555,1.579,2.225,2.153c-6.028,0-10.455-1.458-13.277-4.378
		C1.411,43.946,0,39.234,0,32.726c0-3.923,0.79-7.822,2.368-11.698c1.579-3.875,3.804-7.367,6.675-10.478
		c2.871-3.108,6.315-5.645,10.334-7.607C23.396,0.982,27.846,0,32.726,0c1.625,0,3.302,0.143,5.024,0.43
		c1.723,0.287,3.395,0.815,5.023,1.579l39.903,92.148V0.287H92.292z"/>
	<path fill="#262626" d="M158.461,35.883v48.801c0,0.958,0.047,2.153,0.145,3.588c0.092,1.436,0.357,2.85,0.789,4.234
		c0.43,1.389,1.076,2.584,1.938,3.589c0.861,1.005,2.057,1.507,3.588,1.507c4.688,0,8.133-5.214,10.334-15.646h5.311
		c-1.053,6.029-2.393,10.791-4.018,14.282c-1.629,3.495-3.352,6.15-5.168,7.966c-1.818,1.819-3.686,2.992-5.598,3.518
		c-1.916,0.524-3.639,0.789-5.168,0.789c-2.201,0-4.09-0.384-5.668-1.148c-1.58-0.766-2.92-1.77-4.02-3.014
		c-1.102-1.243-1.988-2.678-2.656-4.307c-0.67-1.626-1.197-3.349-1.578-5.167c-1.436,3.732-3.756,6.939-6.963,9.617
		c-3.205,2.68-7.104,4.02-11.697,4.02c-2.871,0-5.766-0.574-8.684-1.723c-2.92-1.148-5.551-3.036-7.895-5.67
		c-2.346-2.631-4.258-6.028-5.74-10.191c-1.484-4.163-2.225-9.258-2.225-15.286c0-4.4,0.502-8.994,1.506-13.779
		c1.006-4.784,2.605-9.137,4.809-13.062c2.201-3.923,5.023-7.177,8.469-9.76s7.607-3.875,12.486-3.875
		c1.15,0,2.369,0.119,3.66,0.352c1.293,0.235,2.535,0.634,3.732,1.198c1.195,0.564,2.32,1.338,3.373,2.325
		c1.053,0.987,1.914,2.185,2.584,3.593v-6.75H158.461z M131.619,97.603c1.438,0,2.895-0.406,4.379-1.222
		c1.482-0.816,2.822-1.92,4.02-3.31c1.195-1.391,2.174-3.046,2.941-4.965c0.766-1.918,1.148-3.981,1.148-6.188V49.104
		c-0.67-1.534-1.699-2.946-3.086-4.243c-1.389-1.296-3.182-1.945-5.383-1.945c-3.064,0-5.693,1.032-7.895,3.096
		c-2.201,2.063-3.971,4.654-5.311,7.771c-1.34,3.118-2.32,6.525-2.941,10.218c-0.625,3.694-0.934,7.22-0.934,10.577
		c0,8.253,1.123,14.153,3.373,17.701C124.178,95.829,127.408,97.603,131.619,97.603z"/>
	<path fill="#262626" d="M228.072,35.883v68.752c2.391-0.765,4.521-1.626,6.387-2.584c1.865-0.954,3.494-2.246,4.881-3.875
		c1.387-1.626,2.535-3.732,3.445-6.315c0.908-2.583,1.602-5.885,2.08-9.905h5.311c-0.768,5.074-1.746,9.211-2.941,12.416
		c-1.197,3.208-2.68,5.791-4.449,7.751c-1.773,1.963-3.875,3.495-6.316,4.594c-2.439,1.098-5.238,2.128-8.396,3.086v9.186
		c0,4.497-0.479,8.3-1.436,11.411c-0.957,3.108-2.273,5.645-3.947,7.607c-1.674,1.96-3.588,3.373-5.74,4.234
		c-2.154,0.861-4.428,1.291-6.818,1.291c-4.785,0-8.518-1.363-11.197-4.09c-2.68-2.728-4.018-6.054-4.018-9.977
		c0-2.489,0.549-4.736,1.65-6.745c1.1-2.011,2.535-3.854,4.307-5.526c1.77-1.675,3.779-3.158,6.027-4.449
		c2.248-1.292,4.523-2.418,6.818-3.374V97.028c-1.818,2.49-4.09,4.546-6.818,6.173c-2.727,1.628-5.812,2.439-9.256,2.439
		c-2.873,0-5.768-0.55-8.686-1.65c-2.92-1.099-5.551-2.893-7.895-5.383c-2.346-2.487-4.258-5.741-5.74-9.76
		c-1.484-4.02-2.225-8.899-2.225-14.64c0-4.306,0.502-8.756,1.506-13.349c1.006-4.592,2.607-8.778,4.809-12.559
		c2.201-3.779,5.025-6.912,8.469-9.401c3.445-2.488,7.607-3.732,12.488-3.732c1.146,0,2.367,0.119,3.66,0.352
		c1.291,0.235,2.533,0.634,3.732,1.198c1.195,0.564,2.318,1.338,3.371,2.325c1.053,0.987,1.914,2.185,2.584,3.593v-6.75H228.072z
		 M201.232,94.732c1.434,0,2.893-0.383,4.377-1.15c1.482-0.767,2.822-1.823,4.02-3.167c1.195-1.343,2.176-2.927,2.941-4.75
		s1.148-3.791,1.148-5.901V49.106c-0.67-1.534-1.699-2.948-3.086-4.245c-1.389-1.296-3.184-1.945-5.383-1.945
		c-3.062,0-5.693,0.985-7.893,2.952c-2.203,1.967-3.973,4.438-5.312,7.412c-1.34,2.974-2.32,6.238-2.941,9.788
		c-0.625,3.55-0.934,6.907-0.934,10.074c0,7.773,1.125,13.315,3.373,16.626C193.791,93.077,197.02,94.732,201.232,94.732z
		 M207.402,136.069c2.584,0,4.281-0.982,5.098-2.942c0.812-1.963,1.219-4.617,1.219-7.966v-10.047
		c-4.785,2.2-8.182,4.377-10.189,6.53c-2.012,2.153-3.016,4.568-3.016,7.248c0,2.201,0.598,3.948,1.795,5.24
		C203.504,135.424,205.201,136.069,207.402,136.069z"/>
	<path fill="#262626" d="M293.236,35.883v68.752c2.391-0.765,4.52-1.626,6.385-2.584c1.867-0.954,3.492-2.246,4.881-3.875
		c1.387-1.626,2.535-3.732,3.445-6.315c0.908-2.583,1.6-5.885,2.082-9.905h5.311c-0.768,5.074-1.748,9.211-2.943,12.416
		c-1.197,3.208-2.68,5.791-4.449,7.751c-1.771,1.963-3.875,3.495-6.314,4.594c-2.441,1.098-5.24,2.128-8.396,3.086v9.186
		c0,4.497-0.482,8.3-1.438,11.411c-0.957,3.108-2.273,5.645-3.945,7.607c-1.678,1.96-3.588,3.373-5.742,4.234
		c-2.152,0.861-4.428,1.291-6.818,1.291c-4.787,0-8.518-1.363-11.195-4.09c-2.68-2.728-4.02-6.054-4.02-9.977
		c0-2.489,0.551-4.736,1.65-6.745c1.1-2.011,2.535-3.854,4.307-5.526c1.77-1.675,3.779-3.158,6.029-4.449
		c2.246-1.292,4.52-2.418,6.816-3.374v-9.042c-1.914,2.776-4.09,4.833-6.531,6.172c-2.439,1.339-4.904,2.01-7.391,2.01
		c-2.777,0-5.406-0.384-7.895-1.148c-2.49-0.766-4.645-2.032-6.459-3.804c-1.818-1.77-3.254-4.066-4.307-6.889
		c-1.055-2.822-1.58-6.292-1.58-10.407v-50.38h14.354v48.801c0,4.69,0.812,8.016,2.441,9.976c1.627,1.962,3.682,2.942,6.172,2.942
		c1.34,0,2.678-0.333,4.018-1.004c1.34-0.668,2.535-1.651,3.59-2.942c1.053-1.292,1.912-2.846,2.584-4.665
		c0.668-1.817,1.004-3.923,1.004-6.315V35.883H293.236z M272.566,136.069c2.584,0,4.281-0.982,5.094-2.942
		c0.812-1.963,1.221-4.617,1.221-7.966v-10.047c-4.787,2.2-8.182,4.377-10.191,6.53c-2.008,2.153-3.014,4.568-3.014,7.248
		c0,2.201,0.596,3.948,1.793,5.24C268.664,135.424,270.363,136.069,272.566,136.069z"/>
	<path fill="#262626" d="M307.443,15.214c0-2.583,0.908-4.83,2.727-6.746c1.816-1.913,4.068-2.871,6.746-2.871
		c2.584,0,4.832,0.958,6.746,2.871c1.914,1.916,2.871,4.162,2.871,6.746c0,2.681-0.957,4.93-2.871,6.747
		c-1.914,1.818-4.162,2.727-6.746,2.727c-2.678,0-4.93-0.908-6.746-2.727C308.352,20.145,307.443,17.895,307.443,15.214z
		 M324.381,35.883v48.801c0,0.958,0.047,2.153,0.145,3.588c0.092,1.436,0.357,2.85,0.787,4.234c0.43,1.389,1.076,2.584,1.939,3.589
		c0.861,1.005,2.057,1.507,3.588,1.507c4.686,0,8.131-5.214,10.334-15.646h5.311c-1.053,6.029-2.393,10.791-4.018,14.282
		c-1.631,3.495-3.352,6.15-5.168,7.966c-1.82,1.819-3.686,2.992-5.598,3.518c-1.916,0.524-3.637,0.789-5.168,0.789
		c-3.35,0-6.078-0.646-8.182-1.938c-2.105-1.291-3.781-2.942-5.023-4.951c-1.244-2.01-2.105-4.257-2.584-6.747
		c-0.48-2.487-0.717-4.88-0.717-7.176V35.883H324.381z"/>
	<path fill="#262626" d="M393.994,35.883v68.752c2.391-0.765,4.521-1.626,6.387-2.584c1.865-0.954,3.492-2.246,4.881-3.875
		c1.387-1.626,2.535-3.732,3.443-6.315c0.91-2.583,1.604-5.885,2.082-9.905h5.311c-0.768,5.074-1.746,9.211-2.941,12.416
		c-1.197,3.208-2.682,5.791-4.451,7.751c-1.771,1.963-3.873,3.495-6.314,4.594c-2.439,1.098-5.238,2.128-8.396,3.086v9.186
		c0,4.497-0.479,8.3-1.436,11.411c-0.957,3.108-2.273,5.645-3.947,7.607c-1.674,1.96-3.588,3.373-5.742,4.234
		c-2.152,0.861-4.426,1.291-6.816,1.291c-4.785,0-8.518-1.363-11.197-4.09c-2.678-2.728-4.018-6.054-4.018-9.977
		c0-2.489,0.549-4.736,1.65-6.745c1.1-2.011,2.535-3.854,4.307-5.526c1.77-1.675,3.779-3.158,6.027-4.449
		c2.248-1.292,4.523-2.418,6.818-3.374V97.028c-1.818,2.49-4.09,4.546-6.818,6.173c-2.727,1.628-5.812,2.439-9.256,2.439
		c-2.873,0-5.768-0.55-8.686-1.65c-2.92-1.099-5.551-2.893-7.895-5.383c-2.346-2.487-4.258-5.741-5.74-9.76
		c-1.486-4.02-2.227-8.899-2.227-14.64c0-4.306,0.504-8.756,1.508-13.349c1.006-4.592,2.607-8.778,4.809-12.559
		c2.199-3.779,5.025-6.912,8.469-9.401c3.445-2.488,7.607-3.732,12.488-3.732c1.146,0,2.367,0.119,3.66,0.352
		c1.291,0.235,2.533,0.634,3.732,1.198c1.195,0.564,2.318,1.338,3.371,2.325c1.053,0.987,1.914,2.185,2.584,3.593v-6.75H393.994z
		 M367.154,94.732c1.434,0,2.893-0.383,4.377-1.15c1.482-0.767,2.822-1.823,4.02-3.167c1.195-1.343,2.176-2.927,2.941-4.75
		c0.764-1.823,1.148-3.791,1.148-5.901V49.106c-0.67-1.534-1.699-2.948-3.086-4.245c-1.389-1.296-3.184-1.945-5.383-1.945
		c-3.062,0-5.695,0.985-7.895,2.952c-2.201,1.967-3.971,4.438-5.311,7.412c-1.342,2.974-2.32,6.238-2.941,9.788
		c-0.623,3.55-0.934,6.907-0.934,10.074c0,7.773,1.123,13.315,3.373,16.626C359.713,93.077,362.943,94.732,367.154,94.732z
		 M373.324,136.069c2.584,0,4.281-0.982,5.098-2.942c0.811-1.963,1.219-4.617,1.219-7.966v-10.047
		c-4.785,2.2-8.182,4.377-10.189,6.53c-2.012,2.153-3.016,4.568-3.016,7.248c0,2.201,0.598,3.948,1.795,5.24
		C369.426,135.424,371.123,136.069,373.324,136.069z"/>
	<path fill="#262626" d="M424.994,35.883V47.94c1.148-1.722,2.273-3.349,3.375-4.88c1.098-1.53,2.318-2.871,3.66-4.019
		c1.338-1.148,2.82-2.081,4.449-2.798c1.627-0.718,3.443-1.077,5.453-1.077c3.254,0,5.646,0.838,7.178,2.511
		c1.529,1.675,2.295,3.71,2.295,6.101c0,1.436-0.238,2.633-0.715,3.588c-0.482,0.958-1.057,1.723-1.725,2.297
		c-0.67,0.575-1.387,0.982-2.152,1.22c-0.768,0.241-1.436,0.359-2.01,0.359c-0.861,0-1.557-0.191-2.08-0.574
		c-0.527-0.382-1.055-0.79-1.58-1.22c-0.527-0.431-1.127-0.837-1.795-1.221c-0.668-0.38-1.531-0.574-2.582-0.574
		c-2.203,0-4.307,0.767-6.316,2.297c-2.008,1.531-3.828,3.158-5.455,4.879v52.821h-14.354V35.883H424.994z"/>
	<path fill="#262626" d="M506.834,35.883v48.801c0,0.958,0.047,2.153,0.145,3.588c0.092,1.436,0.357,2.85,0.787,4.234
		c0.434,1.389,1.078,2.584,1.939,3.589c0.861,1.005,2.057,1.507,3.588,1.507c4.688,0,8.133-5.214,10.334-15.646h5.311
		c-1.053,6.029-2.393,10.791-4.018,14.282c-1.631,3.495-3.352,6.15-5.168,7.966c-1.82,1.819-3.686,2.992-5.598,3.518
		c-1.916,0.524-3.637,0.789-5.168,0.789c-2.201,0-4.09-0.384-5.668-1.148c-1.58-0.766-2.92-1.77-4.021-3.014
		c-1.1-1.243-1.984-2.678-2.654-4.307c-0.67-1.626-1.197-3.349-1.58-5.167c-1.434,3.732-3.754,6.939-6.959,9.617
		c-3.209,2.68-7.105,4.02-11.699,4.02c-2.871,0-5.766-0.574-8.684-1.723c-2.92-1.148-5.551-3.036-7.895-5.67
		c-2.346-2.631-4.258-6.028-5.74-10.191c-1.486-4.163-2.227-9.258-2.227-15.286c0-4.4,0.502-8.994,1.508-13.779
		c1.006-4.784,2.605-9.137,4.809-13.062c2.199-3.923,5.023-7.177,8.469-9.76s7.607-3.875,12.488-3.875
		c1.146,0,2.367,0.119,3.66,0.352c1.291,0.235,2.533,0.634,3.732,1.198c1.195,0.564,2.318,1.338,3.371,2.325
		c1.053,0.987,1.914,2.185,2.584,3.593v-6.75H506.834z M479.994,97.603c1.434,0,2.893-0.406,4.377-1.222
		c1.482-0.816,2.822-1.92,4.02-3.31c1.195-1.391,2.176-3.046,2.941-4.965c0.764-1.918,1.148-3.981,1.148-6.188V49.104
		c-0.67-1.534-1.699-2.946-3.086-4.243c-1.389-1.296-3.184-1.945-5.383-1.945c-3.062,0-5.695,1.032-7.895,3.096
		c-2.201,2.063-3.971,4.654-5.311,7.771c-1.342,3.118-2.32,6.525-2.941,10.218c-0.623,3.694-0.934,7.22-0.934,10.577
		c0,8.253,1.123,14.153,3.373,17.701C472.553,95.829,475.783,97.603,479.994,97.603z"/>
	<path fill="#262626" d="M537.834,35.883v9.903c2.488-4.592,5.119-7.511,7.895-8.754c2.775-1.243,5.406-1.866,7.895-1.866
		s4.666,0.336,6.531,1.004c1.865,0.671,3.467,1.579,4.809,2.728c1.34,1.147,2.463,2.489,3.373,4.018
		c0.908,1.532,1.65,3.208,2.225,5.024c1.34-2.871,2.727-5.143,4.162-6.818c1.436-1.673,2.871-2.965,4.307-3.875
		c1.436-0.908,2.846-1.482,4.234-1.723c1.385-0.238,2.654-0.358,3.803-0.358c4.307,0,7.773,0.814,10.406,2.439
		c2.633,1.628,4.615,3.709,5.957,6.244c1.34,2.537,2.225,5.311,2.656,8.325c0.43,3.015,0.646,5.909,0.646,8.684
		c0,1.723-0.051,3.613-0.145,5.67c-0.098,2.059-0.193,4.163-0.287,6.315c-0.096,2.153-0.193,4.306-0.287,6.458
		c-0.096,2.153-0.145,4.141-0.145,5.958c0,0.767,0.049,1.843,0.145,3.229c0.094,1.388,0.334,2.752,0.719,4.09
		c0.381,1.341,1.004,2.512,1.865,3.517c0.861,1.005,2.104,1.507,3.73,1.507c2.584,0,4.594-0.43,6.029-1.292v1.004
		c0,2.394-0.336,4.331-1.004,5.813c-0.672,1.484-1.51,2.608-2.514,3.373c-1.004,0.767-2.104,1.291-3.299,1.578
		c-1.199,0.287-2.277,0.432-3.23,0.432c-3.064,0-5.648-0.599-7.752-1.794c-2.105-1.195-3.828-2.8-5.168-4.809
		c-1.34-2.01-2.32-4.353-2.941-7.034c-0.623-2.678-0.932-5.454-0.932-8.325c0-0.861,0.021-2.463,0.07-4.809
		c0.049-2.343,0.096-4.855,0.145-7.535c0.047-2.678,0.094-5.214,0.143-7.607c0.047-2.391,0.072-4.067,0.072-5.024
		c0-3.061-0.24-5.598-0.719-7.608c-0.479-2.009-1.148-3.588-2.008-4.737c-0.861-1.147-1.844-1.959-2.943-2.439
		c-1.102-0.478-2.275-0.719-3.516-0.719c-2.969,0-5.385,1.198-7.248,3.589c-1.867,2.393-3.184,6.412-3.949,12.057v45.931h-14.352
		V59.71c0-1.723-0.072-3.396-0.217-5.024c-0.143-1.626-0.502-3.086-1.076-4.378c-0.574-1.292-1.389-2.318-2.439-3.085
		c-1.055-0.765-2.49-1.149-4.307-1.149c-3.064,0-5.383,1.27-6.961,3.804c-1.578,2.537-3.039,6.484-4.379,11.841v45.931H523.48
		V35.883H537.834z"/>
</g>
</svg>
